<svg width="347" height="197" viewBox="0 0 347 197" fill="none" xmlns="http://www.w3.org/2000/svg">
<path d="M1 0.5V73H157V30.5H49.75V0.5H1Z" fill="#2B2B2B"/>
<path d="M0.75 149.5V85.5H49.25V144.5C52.25 153.5 62 149.5 65.75 149.5L82.25 134.25L101.75 175.5C87.35 191.3 71.75 195.583 65.75 195.75H45.5C14.5 192.75 2.75 163.667 0.75 149.5Z" fill="#2B2B2B"/>
<path d="M157.25 86H108V135.75C114.704 179.83 149.96 194.783 166.75 196.75H191.5C208.9 193.35 222.75 184 227.5 179.75C242.9 192.15 258.083 196.25 263.75 196.75H283.5C332.3 192.75 346.167 151.083 347 130.75V30.25H298V130.75C295.8 145.35 287.417 149.667 283.5 150H267.75C257.35 149 252.917 136.75 252 130.75V30.25H203.5V130.75C200.9 144.75 192.083 149.417 188 150H172.75C163.75 149.2 158.667 140.167 157.25 135.75V86Z" fill="#38BDF8"/>
</svg>
